<svg xmlns="http://www.w3.org/2000/svg" xmlns:xlink="http://www.w3.org/1999/xlink" id="Layer_1" data-name="Layer 1" viewBox="0 0 500 500" width="500"  height="500" ><defs><style>.cls-1{fill:url(#linear-gradient);}.cls-2{fill:url(#linear-gradient-2);}</style><linearGradient id="linear-gradient" x1="133.13" y1="497.47" x2="411.44" y2="258.02" gradientTransform="matrix(0.56, 0, 0, -0.57, 34.78, 323.45)" gradientUnits="userSpaceOnUse"><stop offset="0" stop-color="#5a9fd4"/><stop offset="1" stop-color="#306998"/></linearGradient><linearGradient id="linear-gradient-2" x1="516.68" y1="124.2" x2="420.17" y2="260.75" gradientTransform="matrix(0.56, 0, 0, -0.57, 34.78, 323.45)" gradientUnits="userSpaceOnUse"><stop offset="0" stop-color="#ffd43b"/><stop offset="1" stop-color="#ffe873"/></linearGradient></defs><title>python</title><g id="g2303"><path id="path1948" class="cls-1" d="M257.09,38.57a210.71,210.71,0,0,0-33,2.64c-29.23,4.84-34.54,15-34.54,33.66V99.55h69.08v8.23h-95c-20.08,0-37.66,11.31-43.16,32.83-6.34,24.66-6.62,40.06,0,65.81,4.91,19.17,16.64,32.83,36.71,32.83h23.76V209.67c0-21.38,19.72-40.23,43.15-40.23h69c19.21,0,34.54-14.83,34.54-32.91V74.87c0-17.55-15.79-30.73-34.54-33.66A229.87,229.87,0,0,0,257.09,38.57ZM219.73,58.42c7.14,0,13,5.55,13,12.38s-5.83,12.3-13,12.3-13-5.5-13-12.3S212.57,58.42,219.73,58.42Z"/><path id="path1950" class="cls-2" d="M336.24,107.78v28.75c0,22.3-20.16,41.06-43.16,41.06h-69c-18.9,0-34.54,15.16-34.54,32.91v61.66c0,17.55,16.28,27.87,34.54,32.9,21.87,6,42.84,7.12,69,0,17.39-4.72,34.54-14.22,34.54-32.9V247.48h-69v-8.23H362.16c20.08,0,27.56-13.13,34.55-32.83,7.21-20.28,6.9-39.79,0-65.81-5-18.74-14.44-32.83-34.55-32.83ZM297.43,263.93c7.16,0,13,5.5,13,12.3s-5.8,12.38-13,12.38-13-5.55-13-12.38S290.29,263.93,297.43,263.93Z"/><path id="path46" d="M108.21,415.08q0-27.21-14.14-28a24.36,24.36,0,0,0-11,2q-4.26,1.66-5.77,3.34v43.29q9.06,6.22,16.06,5.78Q108.2,440.45,108.21,415.08Zm11.63.75q0,13.83-5.93,22.95-6.63,10.32-18.36,10.62-8.85.32-18.23-6.07v39.35l-10.11-3.95V391.38a23.34,23.34,0,0,1,6.39-5.78q9-5.78,21.94-5.93l.14.16q11.8-.16,18.19,10.63Q119.84,400.35,119.84,415.83Z"/><path id="path48" d="M181.65,441.66q0,18.54-3.38,25.68t-13,11.39a46,46,0,0,1-16.76,3.65l-1.67-7a74,74,0,0,0,12.88-2.74c4.91-1.82,8.27-4.61,10.12-8.35,1.48-3.05,2.21-8.86,2.21-17.47v-2.89a48,48,0,0,1-21.74,5.16,18.93,18.93,0,0,1-13.16-5.16,18.21,18.21,0,0,1-6.37-14.28V383.48l10.11-3.81v46.49q0,7.45,4.38,11.48c2.92,2.68,6.71,4,11.34,3.87s9.61-2.07,14.89-5.92V381.35h10.11Z"/><path id="path50" d="M221.13,448.8c-1.2.11-2.31.15-3.33.15q-8.58,0-13.36-4.49T199.67,432V388.33h-6.93v-7h6.93V362.81l10.1-3.95v22.49h11.36v7H209.77v43.41q0,6.24,3,8.84c1.75,1.42,4.53,2.23,8.31,2.44Z"/><path id="path52" d="M282.37,447.89H272.26V405.05a21.71,21.71,0,0,0-2.78-11.24c-2.14-3.55-5.1-5.32-8.91-5.32q-6.94,0-17.39,8.05v51.35H233.06V345.5l10.12-3.5v46.64a33.22,33.22,0,0,1,21.19-7.75,16.21,16.21,0,0,1,13,5.92,22.09,22.09,0,0,1,5,14.74v46.34Z"/><path id="path54" d="M336.13,413.33q0-10.45-3.61-17.28-4.27-8.31-13.29-8.77-16.64,1.05-16.62,26.12,0,11.5,3.48,19.2,4.44,9.81,13.34,9.66Q336.13,442.13,336.13,413.33Zm11.08.07q0,14.88-6.93,24.77a24.21,24.21,0,0,1-21,11.09q-13.31,0-20.78-11.09-6.79-9.89-6.78-24.77,0-14,7.33-23.55a24.42,24.42,0,0,1,20.36-10.18q12.6,0,20.51,10.18Q347.21,399.44,347.21,413.4Z"/><path id="path56" d="M405.19,447.89H395.08V402.62q0-7.44-4.09-11.63c-2.72-2.78-6.35-4.13-10.88-4a23,23,0,0,0-13.71,5.16v55.76H356.29V390.76q8.73-7,16.07-9.11a45.06,45.06,0,0,1,12.19-2,29.06,29.06,0,0,1,6.79.77,19.09,19.09,0,0,1,9.69,5.62A15.63,15.63,0,0,1,405.19,397Z"/><path id="text3004" d="M424.88,371.46h1.78V359.25h4.2V357.8H420.68v1.45h4.2v12.21m7.55,0H434V360.31l3.28,11.15h1.69l3.43-11.11v11.11H444V357.8h-2.19l-3.74,11.7-3.19-11.7h-2.45v13.66"/></g></svg>