<?xml version="1.0" encoding="utf-8"?>
<!-- Generator: Adobe Illustrator 23.0.3, SVG Export Plug-In . SVG Version: 6.00 Build 0)  -->
<svg version="1.1" id="logo" xmlns="http://www.w3.org/2000/svg" xmlns:xlink="http://www.w3.org/1999/xlink" x="0px" y="0px"
	 viewBox="0 0 24 24" style="enable-background:new 0 0 24 24;" xml:space="preserve">
<style type="text/css">
	.st0{fill-rule:evenodd;clip-rule:evenodd;fill:#0074BD;}
	.st1{fill-rule:evenodd;clip-rule:evenodd;fill:#EA2D2E;}
</style>
<title>java-color</title>
<g>
	<path class="st0" d="M10.4,12.3c0,0-0.5,0.3,0.3,0.4c1,0.1,1.5,0.1,2.6-0.1c0,0,0.3,0.2,0.7,0.3C11.6,14,8.5,12.9,10.4,12.3
		L10.4,12.3z"/>
	<path class="st0" d="M10.1,11c0,0-0.5,0.4,0.3,0.5c1,0.1,1.9,0.1,3.3-0.2c0,0,0.2,0.2,0.5,0.3C11.3,12.5,8,11.7,10.1,11L10.1,11z"
		/>
	<path class="st1" d="M12.6,8.7c0.6,0.7-0.2,1.3-0.2,1.3s1.5-0.8,0.8-1.8c-0.6-0.9-1.1-1.4,1.5-2.9C14.8,5.3,10.6,6.4,12.6,8.7
		L12.6,8.7z"/>
	<path class="st0" d="M15.8,13.3c0,0,0.3,0.3-0.4,0.5c-1.4,0.4-5.8,0.6-7,0c-0.4-0.2,0.4-0.5,0.6-0.5c0.3-0.1,0.4,0,0.4,0
		C9,13,6.3,14,8.1,14.3C13,15.1,17.1,13.9,15.8,13.3L15.8,13.3z"/>
	<path class="st0" d="M10.6,9.6c0,0-2.2,0.5-0.8,0.7c0.6,0.1,1.8,0.1,3,0c0.9-0.1,1.9-0.2,1.9-0.2s-0.3,0.1-0.6,0.3
		c-2.3,0.6-6.7,0.3-5.4-0.3C9.8,9.5,10.6,9.6,10.6,9.6L10.6,9.6z"/>
	<path class="st0" d="M14.7,11.8c2.3-1.2,1.2-2.4,0.5-2.2c-0.2,0-0.3,0.1-0.3,0.1s0.1-0.1,0.2-0.2C16.6,9,17.7,11.1,14.7,11.8
		C14.6,11.9,14.7,11.9,14.7,11.8L14.7,11.8z"/>
	<path class="st1" d="M13.3,2.8c0,0,1.3,1.3-1.2,3.3c-2,1.6-0.5,2.5,0,3.5c-1.2-1.1-2-2-1.5-2.9C11.4,5.4,13.8,4.8,13.3,2.8
		L13.3,2.8z"/>
	<path class="st0" d="M10.9,15.1c2.2,0.1,5.6-0.1,5.7-1.1c0,0-0.2,0.4-1.8,0.7c-1.9,0.4-4.2,0.3-5.6,0.1C9.1,14.8,9.4,15,10.9,15.1
		L10.9,15.1z"/>
	<path class="st1" d="M16.5,17L16.5,17L16.5,17l0.1,0v0H16.5l0,0.2h0L16.5,17L16.5,17L16.5,17z M16.9,17L16.9,17l-0.1,0.2h0L16.7,17
		h0v0.2h0V17h0.1l0.1,0.2L16.9,17L16.9,17l0,0.2h0L16.9,17L16.9,17z"/>
	<path class="st1" d="M10.5,19.1c-0.2,0.2-0.4,0.3-0.6,0.3c-0.3,0-0.4-0.2-0.4-0.4c0-0.3,0.2-0.5,0.8-0.5h0.2V19.1L10.5,19.1
		L10.5,19.1z M11.1,19.8v-2c0-0.5-0.3-0.9-1-0.9c-0.4,0-0.8,0.1-1.1,0.2l0.1,0.4c0.2-0.1,0.5-0.2,0.8-0.2c0.4,0,0.6,0.2,0.6,0.5v0.3
		h-0.2c-1,0-1.4,0.4-1.4,1c0,0.5,0.3,0.8,0.9,0.8c0.4,0,0.6-0.1,0.9-0.4l0,0.3H11.1L11.1,19.8z"/>
	<path class="st1" d="M13,19.8h-0.7l-0.9-2.8h0.6l0.5,1.7l0.1,0.5c0.3-0.8,0.5-1.5,0.6-2.3h0.6C13.7,17.9,13.4,18.9,13,19.8L13,19.8
		z"/>
	<path class="st1" d="M15.8,19.1c-0.2,0.2-0.4,0.3-0.6,0.3c-0.3,0-0.4-0.2-0.4-0.4c0-0.3,0.2-0.5,0.8-0.5h0.2L15.8,19.1L15.8,19.1
		L15.8,19.1z M16.4,19.8v-2c0-0.5-0.3-0.9-1-0.9c-0.4,0-0.8,0.1-1.1,0.2l0.1,0.4c0.2-0.1,0.5-0.2,0.8-0.2c0.4,0,0.6,0.2,0.6,0.5v0.3
		h-0.2c-1,0-1.4,0.4-1.4,1c0,0.5,0.3,0.8,0.9,0.8c0.4,0,0.6-0.1,0.9-0.4l0,0.3H16.4L16.4,19.8z"/>
	<path class="st1" d="M8.2,20.3c-0.2,0.2-0.4,0.4-0.7,0.5l-0.3-0.3c0.2-0.1,0.4-0.3,0.5-0.5c0.1-0.2,0.1-0.3,0.1-0.8v-3.2h0.6v3.2
		C8.4,19.8,8.4,20,8.2,20.3L8.2,20.3z"/>
</g>
</svg>
